<svg xmlns="http://www.w3.org/2000/svg" width="616" height="148" viewBox="0 0 616 148">
  <defs>
    <filter id="ts" x="-20%" y="-20%" width="140%" height="140%">
      <feDropShadow dx="0" dy="1" stdDeviation="1" flood-color="#000" flood-opacity="0.5"/>
    </filter>
  </defs>
  <style>
    text { font: 700 26px Arial, Helvetica, sans-serif; text-anchor: middle; }
  </style>
  <rect x="0" y="0" width="616" height="74" fill="#E9E5DC"/>
  <rect x="0" y="74" width="616" height="74" fill="#22252A"/>

  <g>
    <rect x="12" y="12" width="76" height="50" rx="8" fill="#FF5823"/><text x="50" y="46" fill="#000">5</text>
    <rect x="98" y="12" width="76" height="50" rx="8" fill="#000"/><text x="136" y="46" fill="#FFF" filter="url(#ts)">2</text>
    <rect x="184" y="12" width="76" height="50" rx="8" fill="#9E9E9E"/><text x="222" y="46" fill="#000">92</text>
    <rect x="270" y="12" width="76" height="50" rx="8" fill="#1976D2"/><text x="308" y="46" fill="#FFF" filter="url(#ts)">118</text>
    <rect x="356" y="12" width="76" height="50" rx="8" fill="#4CAF50"/><text x="394" y="46" fill="#000">141</text>
    <rect x="442" y="12" width="76" height="50" rx="8" fill="#FF9800"/><text x="480" y="46" fill="#000">163</text>
    <rect x="528" y="12" width="76" height="50" rx="8" fill="#D32F2F"/><text x="566" y="46" fill="#FFF" filter="url(#ts)">178</text>
  </g>
  <g>
    <rect x="12" y="86" width="76" height="50" rx="8" fill="#FF5823"/><text x="50" y="120" fill="#000">5</text>
    <rect x="98" y="86" width="76" height="50" rx="8" fill="#000" stroke="#3A3E45" stroke-width="1"/><text x="136" y="120" fill="#FFF" filter="url(#ts)">2</text>
    <rect x="184" y="86" width="76" height="50" rx="8" fill="#9E9E9E"/><text x="222" y="120" fill="#000">92</text>
    <rect x="270" y="86" width="76" height="50" rx="8" fill="#1976D2"/><text x="308" y="120" fill="#FFF" filter="url(#ts)">118</text>
    <rect x="356" y="86" width="76" height="50" rx="8" fill="#4CAF50"/><text x="394" y="120" fill="#000">141</text>
    <rect x="442" y="86" width="76" height="50" rx="8" fill="#FF9800"/><text x="480" y="120" fill="#000">163</text>
    <rect x="528" y="86" width="76" height="50" rx="8" fill="#D32F2F"/><text x="566" y="120" fill="#FFF" filter="url(#ts)">178</text>
  </g>
</svg>
